<svg xmlns="http://www.w3.org/2000/svg" viewBox="0 0 64 64" aria-labelledby="title"
aria-describedby="desc" role="img" xmlns:xlink="http://www.w3.org/1999/xlink">
  <title>Weibo</title>
  <desc>A solid styled icon from Orion Icon Library.</desc>
  <path data-name="layer3"
  d="M48.068 31.241c-.9-.3-1.5-.5-1-1.606 1-2.609 1.1-4.818 0-6.423-2.1-3.011-7.811-2.81-14.32-.1 0 0-2 .9-1.5-.7 1-3.212.9-5.922-.7-7.527-3.5-3.513-12.918.1-21.03 8.23C3.5 29.133 0 35.556 0 41.177c0 10.639 13.619 17.062 26.938 17.062 17.425 0 29.041-10.137 29.041-18.166-.201-4.918-4.306-7.628-7.911-8.832zm-21.23 23.184c-10.615 1-19.728-3.714-20.429-10.739s7.31-13.449 17.925-14.553c10.615-1 19.728 3.714 20.429 10.739s-7.31 13.549-17.925 14.553z"
  fill="#202020"></path>
  <path data-name="layer2" d="M59.584 11.87a16.616 16.616 0 0 0-16.123-5.219 2.46 2.46 0 0 0 1 4.818 11.809 11.809 0 0 1 11.516 3.714 12.022 12.022 0 0 1 2.5 11.843 2.471 2.471 0 1 0 4.707 1.505 17.057 17.057 0 0 0-3.6-16.661z"
  fill="#202020"></path>
  <path data-name="layer2" d="M45.264 15.182a2.106 2.106 0 0 0 .9 4.115 3.91 3.91 0 0 1 3.805 1.2 3.8 3.8 0 0 1 .8 3.914 2.154 2.154 0 1 0 4.106 1.3 8.409 8.409 0 0 0-1.7-8.13 8.422 8.422 0 0 0-7.911-2.399z"
  fill="#202020"></path>
  <path data-name="layer1" d="M27.839 34.553a11.586 11.586 0 0 0-12.918 5.62 7.893 7.893 0 0 0 5.007 11.241c5.307 1.706 11.516-.9 13.719-5.821 2.103-4.717-.5-9.736-5.808-11.04zM24.034 46.2a4.014 4.014 0 0 1-4.907 1.6 2.816 2.816 0 0 1-1.1-4.215 4 4 0 0 1 4.807-1.606c1.701.603 2.201 2.51 1.2 4.221zm3.4-4.416a1.672 1.672 0 0 1-1.8.7 1.171 1.171 0 0 1-.5-1.606 1.672 1.672 0 0 1 1.8-.7 1.171 1.171 0 0 1 .505 1.601z"
  fill="#202020"></path>
</svg>